<svg width="17" height="17" viewBox="0 0 17 17" fill="none" xmlns="http://www.w3.org/2000/svg">
<path d="M1 0.3C0.613401 0.3 0.3 0.613401 0.3 1C0.3 1.3866 0.613401 1.7 1 1.7L1 0.3ZM3.04545 1L3.72455 0.830225C3.64665 0.518608 3.36666 0.3 3.04545 0.3V1ZM14.0909 12.3364C14.4775 12.3364 14.7909 12.023 14.7909 11.6364C14.7909 11.2498 14.4775 10.9364 14.0909 10.9364V12.3364ZM15.7273 2.63636L16.4064 2.80614C16.4587 2.59702 16.4117 2.37548 16.279 2.20558C16.1464 2.03567 15.9428 1.93636 15.7273 1.93636V2.63636ZM14.0909 9.18182V9.88182C14.4121 9.88182 14.6921 9.66321 14.77 9.35159L14.0909 9.18182ZM1 1.7H3.04545V0.3H1L1 1.7ZM2.36635 1.16977L2.77545 2.80614L4.13365 2.46659L3.72455 0.830225L2.36635 1.16977ZM2.77545 2.80614L4.41181 9.35159L5.77001 9.01204L4.13365 2.46659L2.77545 2.80614ZM5.09091 8.48182H4.68182V9.88182H5.09091V8.48182ZM4.68182 12.3364H14.0909V10.9364H4.68182V12.3364ZM2.75455 10.4091C2.75455 11.4735 3.61742 12.3364 4.68182 12.3364V10.9364C4.39061 10.9364 4.15455 10.7003 4.15455 10.4091H2.75455ZM4.68182 8.48182C3.61742 8.48182 2.75455 9.34469 2.75455 10.4091H4.15455C4.15455 10.1179 4.39061 9.88182 4.68182 9.88182V8.48182ZM3.45455 3.33636H15.7273V1.93636H3.45455V3.33636ZM15.0482 2.46659L13.4118 9.01204L14.77 9.35159L16.4064 2.80614L15.0482 2.46659ZM14.0909 8.48182H5.09091V9.88182H14.0909V8.48182ZM13.3909 14.9091C13.3909 14.9744 13.338 15.0273 13.2727 15.0273V16.4273C14.1112 16.4273 14.7909 15.7476 14.7909 14.9091H13.3909ZM13.2727 15.0273C13.2075 15.0273 13.1545 14.9744 13.1545 14.9091H11.7545C11.7545 15.7476 12.4343 16.4273 13.2727 16.4273V15.0273ZM13.1545 14.9091C13.1545 14.8438 13.2075 14.7909 13.2727 14.7909V13.3909C12.4343 13.3909 11.7545 14.0706 11.7545 14.9091H13.1545ZM13.2727 14.7909C13.338 14.7909 13.3909 14.8438 13.3909 14.9091H14.7909C14.7909 14.0706 14.1112 13.3909 13.2727 13.3909V14.7909ZM5.20909 14.9091C5.20909 14.9744 5.15618 15.0273 5.09091 15.0273V16.4273C5.92938 16.4273 6.60909 15.7476 6.60909 14.9091H5.20909ZM5.09091 15.0273C5.02564 15.0273 4.97273 14.9744 4.97273 14.9091H3.57273C3.57273 15.7476 4.25244 16.4273 5.09091 16.4273V15.0273ZM4.97273 14.9091C4.97273 14.8438 5.02564 14.7909 5.09091 14.7909V13.3909C4.25244 13.3909 3.57273 14.0706 3.57273 14.9091H4.97273ZM5.09091 14.7909C5.15618 14.7909 5.20909 14.8438 5.20909 14.9091H6.60909C6.60909 14.0706 5.92938 13.3909 5.09091 13.3909V14.7909Z" fill="#2E2E2E"/>
</svg>
