<svg width="16" height="16" viewBox="0 0 16 16" fill="none" xmlns="http://www.w3.org/2000/svg">
<path fill-rule="evenodd" clip-rule="evenodd" d="M7.56071 0C5.50752 0 5.24984 0.00897759 4.44344 0.0456755C3.6386 0.0825309 3.08924 0.20995 2.60854 0.396904C2.11131 0.590001 1.68952 0.848304 1.26931 1.26868C0.848776 1.68889 0.590474 2.11068 0.396747 2.60775C0.20932 3.08861 0.0817434 3.63813 0.045518 4.44265C0.0094501 5.24906 0 5.50689 0 7.56008C0 9.61327 0.00913508 9.87016 0.0456755 10.6766C0.0826883 11.4814 0.210107 12.0308 0.396904 12.5115C0.590159 13.0087 0.848461 13.4305 1.26883 13.8507C1.68889 14.2712 2.11068 14.5302 2.6076 14.7233C3.08861 14.9102 3.63813 15.0376 4.44281 15.0745C5.24921 15.1112 5.50673 15.1202 7.55976 15.1202C9.61311 15.1202 9.87 15.1112 10.6764 15.0745C11.4812 15.0376 12.0312 14.9102 12.5122 14.7233C13.0093 14.5302 13.4305 14.2712 13.8505 13.8507C14.2711 13.4305 14.5294 13.0087 14.7231 12.5116C14.9089 12.0308 15.0365 11.4812 15.0743 10.6767C15.1105 9.87031 15.12 9.61327 15.12 7.56008C15.12 5.50689 15.1105 5.24921 15.0743 4.44281C15.0365 3.63797 14.9089 3.08861 14.7231 2.60791C14.5294 2.11068 14.2711 1.68889 13.8505 1.26868C13.43 0.848146 13.0095 0.589844 12.5118 0.396904C12.0298 0.20995 11.4801 0.0825309 10.6753 0.0456755C9.8689 0.00897759 9.61217 0 7.55835 0H7.56071ZM6.88276 1.36224C7.01445 1.36204 7.15612 1.3621 7.30899 1.36217L7.56096 1.36224C9.5795 1.36224 9.81875 1.36949 10.6159 1.40571C11.353 1.43942 11.753 1.56258 12.0195 1.66606C12.3723 1.80309 12.6238 1.96689 12.8883 2.23149C13.1529 2.4961 13.3167 2.7481 13.454 3.1009C13.5575 3.36708 13.6808 3.76714 13.7144 4.50425C13.7506 5.3012 13.7585 5.54061 13.7585 7.55821C13.7585 9.5758 13.7506 9.81521 13.7144 10.6122C13.6807 11.3493 13.5575 11.7493 13.454 12.0155C13.317 12.3683 13.1529 12.6195 12.8883 12.884C12.6237 13.1486 12.3725 13.3124 12.0195 13.4494C11.7533 13.5534 11.353 13.6762 10.6159 13.7099C9.81891 13.7461 9.5795 13.754 7.56096 13.754C5.54227 13.754 5.30302 13.7461 4.50607 13.7099C3.76896 13.6759 3.36891 13.5527 3.10226 13.4492C2.74945 13.3122 2.49745 13.1484 2.23285 12.8838C1.96824 12.6192 1.80444 12.3678 1.6671 12.0149C1.56362 11.7487 1.4403 11.3486 1.40675 10.6115C1.37053 9.81458 1.36328 9.57517 1.36328 7.55632C1.36328 5.53746 1.37053 5.29931 1.40675 4.50236C1.44046 3.76525 1.56362 3.36519 1.6671 3.0987C1.80413 2.7459 1.96824 2.49389 2.23285 2.22929C2.49745 1.96469 2.74945 1.80088 3.10226 1.66354C3.36875 1.55959 3.76896 1.43674 4.50607 1.40288C5.20348 1.37138 5.47375 1.36193 6.88276 1.36035V1.36224ZM10.6885 3.52537C10.6885 3.02436 11.0948 2.61848 11.5957 2.61848V2.61816C12.0965 2.61816 12.5029 3.02452 12.5029 3.52537C12.5029 4.02622 12.0965 4.43257 11.5957 4.43257C11.0948 4.43257 10.6885 4.02622 10.6885 3.52537ZM7.56007 3.67781C5.41607 3.6779 3.67781 5.41621 3.67781 7.56023C3.67781 9.70431 5.41616 11.4419 7.56023 11.4419C9.7043 11.4419 11.442 9.70431 11.442 7.56023C11.442 5.41616 9.70414 3.67781 7.56007 3.67781ZM10.0811 7.56104C10.0811 6.1692 8.95273 5.04102 7.56104 5.04102C6.1692 5.04102 5.04102 6.1692 5.04102 7.56104C5.04102 8.95273 6.1692 10.0811 7.56104 10.0811C8.95273 10.0811 10.0811 8.95273 10.0811 7.56104Z" fill="#828282"/>
</svg>
