<svg width="14" height="14" viewBox="0 0 14 14" fill="none" xmlns="http://www.w3.org/2000/svg">
<path d="M1 0.4C0.668629 0.4 0.4 0.668629 0.4 1C0.4 1.33137 0.668629 1.6 1 1.6L1 0.4ZM2.66667 1L3.24875 0.854479C3.18198 0.587378 2.94199 0.4 2.66667 0.4V1ZM11.6667 10.2667C11.998 10.2667 12.2667 9.99804 12.2667 9.66667C12.2667 9.3353 11.998 9.06667 11.6667 9.06667V10.2667ZM13 2.33333L13.5821 2.47885C13.6269 2.29961 13.5866 2.10972 13.4729 1.96409C13.3592 1.81846 13.1848 1.73333 13 1.73333V2.33333ZM11.6667 7.66667V8.26667C11.942 8.26667 12.182 8.07929 12.2488 7.81219L11.6667 7.66667ZM1 1.6H2.66667V0.4H1L1 1.6ZM2.08458 1.14552L2.41791 2.47885L3.58209 2.18781L3.24875 0.854479L2.08458 1.14552ZM2.41791 2.47885L3.75125 7.81219L4.91542 7.52115L3.58209 2.18781L2.41791 2.47885ZM4.33333 7.06667H4V8.26667H4.33333V7.06667ZM4 10.2667H11.6667V9.06667H4V10.2667ZM2.4 8.66667C2.4 9.55032 3.11634 10.2667 4 10.2667V9.06667C3.77909 9.06667 3.6 8.88758 3.6 8.66667H2.4ZM4 7.06667C3.11634 7.06667 2.4 7.78301 2.4 8.66667H3.6C3.6 8.44575 3.77909 8.26667 4 8.26667V7.06667ZM3 2.93333H13V1.73333H3V2.93333ZM12.4179 2.18781L11.0846 7.52115L12.2488 7.81219L13.5821 2.47885L12.4179 2.18781ZM11.6667 7.06667H4.33333V8.26667H11.6667V7.06667ZM11.0667 12.3333C11.0667 12.3702 11.0368 12.4 11 12.4V13.6C11.6996 13.6 12.2667 13.0329 12.2667 12.3333H11.0667ZM11 12.4C10.9632 12.4 10.9333 12.3702 10.9333 12.3333H9.73333C9.73333 13.0329 10.3004 13.6 11 13.6V12.4ZM10.9333 12.3333C10.9333 12.2965 10.9632 12.2667 11 12.2667V11.0667C10.3004 11.0667 9.73333 11.6338 9.73333 12.3333H10.9333ZM11 12.2667C11.0368 12.2667 11.0667 12.2965 11.0667 12.3333H12.2667C12.2667 11.6338 11.6996 11.0667 11 11.0667V12.2667ZM4.4 12.3333C4.4 12.3702 4.37015 12.4 4.33333 12.4V13.6C5.03289 13.6 5.6 13.0329 5.6 12.3333H4.4ZM4.33333 12.4C4.29651 12.4 4.26667 12.3702 4.26667 12.3333H3.06667C3.06667 13.0329 3.63377 13.6 4.33333 13.6V12.4ZM4.26667 12.3333C4.26667 12.2965 4.29651 12.2667 4.33333 12.2667V11.0667C3.63377 11.0667 3.06667 11.6338 3.06667 12.3333H4.26667ZM4.33333 12.2667C4.37015 12.2667 4.4 12.2965 4.4 12.3333H5.6C5.6 11.6338 5.03289 11.0667 4.33333 11.0667V12.2667Z" fill="#ADB5BD"/>
</svg>
